<svg width="200" height="200" viewBox="0 0 200 200" xmlns="http://www.w3.org/2000/svg">
    <!-- 蓝色圆形背景 -->
    <circle cx="100" cy="100" r="90" fill="#41CD52"/>
    <!-- 白色Q字母 -->
    <path d="M100 40C127.614 40 150 62.3858 150 90C150 117.614 127.614 140 100 140C72.3858 140 50 117.614 50 90C50 62.3858 72.3858 40 100 40ZM100 50C77.9086 50 60 67.9086 60 90C60 112.091 77.9086 130 100 130C122.091 130 140 112.091 140 90C140 67.9086 122.091 50 100 50ZM100 60C116.569 60 130 73.4315 130 90C130 106.569 116.569 120 100 120C83.4315 120 70 106.569 70 90C70 73.4315 83.4315 60 100 60ZM100 70C88.9543 70 80 78.9543 80 90C80 101.046 88.9543 110 100 110C111.046 110 120 101.046 120 90C120 78.9543 111.046 70 100 70Z" fill="white"/>
    <!-- Qt文字 -->
    <text x="100" y="160" font-family="Arial" font-size="24" font-weight="bold" text-anchor="middle" fill="white">Qt</text>
</svg>